<mxfile host="app.diagrams.net" modified="2022-10-12T08:16:59.423Z" agent="5.0 (Windows NT 6.1; Win64; x64) AppleWebKit/537.36 (KHTML, like Gecko) Chrome/105.0.0.0 Safari/537.36" etag="Q_MMfWbXdzWLCQQGSpzU" version="20.3.3" type="github">
  <diagram id="C5RBs43oDa-KdzZeNtuy" name="Page-1">
    <mxGraphModel dx="1422" dy="737" grid="0" gridSize="10" guides="1" tooltips="1" connect="1" arrows="1" fold="1" page="1" pageScale="1" pageWidth="827" pageHeight="1169" math="0" shadow="0">
      <root>
        <mxCell id="WIyWlLk6GJQsqaUBKTNV-0" />
        <mxCell id="WIyWlLk6GJQsqaUBKTNV-1" parent="WIyWlLk6GJQsqaUBKTNV-0" />
        <mxCell id="kTZOPLrIDlMAdD7RSH_V-10" style="edgeStyle=orthogonalEdgeStyle;rounded=0;orthogonalLoop=1;jettySize=auto;html=1;exitX=0.5;exitY=0;exitDx=0;exitDy=0;entryX=0;entryY=0.5;entryDx=0;entryDy=0;strokeWidth=2;fontSize=17;" edge="1" parent="WIyWlLk6GJQsqaUBKTNV-1" source="WIyWlLk6GJQsqaUBKTNV-3" target="kTZOPLrIDlMAdD7RSH_V-1">
          <mxGeometry relative="1" as="geometry" />
        </mxCell>
        <mxCell id="WIyWlLk6GJQsqaUBKTNV-3" value="用户" style="rounded=1;whiteSpace=wrap;html=1;fontSize=17;glass=0;strokeWidth=2;shadow=0;" parent="WIyWlLk6GJQsqaUBKTNV-1" vertex="1">
          <mxGeometry x="110" y="300" width="90" height="50" as="geometry" />
        </mxCell>
        <mxCell id="kTZOPLrIDlMAdD7RSH_V-12" style="edgeStyle=orthogonalEdgeStyle;rounded=0;orthogonalLoop=1;jettySize=auto;html=1;exitX=1;exitY=0.5;exitDx=0;exitDy=0;entryX=0;entryY=0.5;entryDx=0;entryDy=0;strokeWidth=2;fontSize=17;" edge="1" parent="WIyWlLk6GJQsqaUBKTNV-1" source="kTZOPLrIDlMAdD7RSH_V-1" target="kTZOPLrIDlMAdD7RSH_V-4">
          <mxGeometry relative="1" as="geometry" />
        </mxCell>
        <mxCell id="kTZOPLrIDlMAdD7RSH_V-1" value="问题查询" style="rounded=1;whiteSpace=wrap;html=1;strokeWidth=2;fontSize=17;" vertex="1" parent="WIyWlLk6GJQsqaUBKTNV-1">
          <mxGeometry x="270" y="190" width="120" height="60" as="geometry" />
        </mxCell>
        <mxCell id="kTZOPLrIDlMAdD7RSH_V-19" style="edgeStyle=orthogonalEdgeStyle;rounded=0;orthogonalLoop=1;jettySize=auto;html=1;entryX=0.5;entryY=1;entryDx=0;entryDy=0;strokeWidth=2;fontSize=17;" edge="1" parent="WIyWlLk6GJQsqaUBKTNV-1" source="kTZOPLrIDlMAdD7RSH_V-2" target="WIyWlLk6GJQsqaUBKTNV-3">
          <mxGeometry relative="1" as="geometry" />
        </mxCell>
        <mxCell id="kTZOPLrIDlMAdD7RSH_V-2" value="标准问题+答案" style="rounded=1;whiteSpace=wrap;html=1;strokeWidth=2;fontSize=17;" vertex="1" parent="WIyWlLk6GJQsqaUBKTNV-1">
          <mxGeometry x="270" y="390" width="120" height="60" as="geometry" />
        </mxCell>
        <mxCell id="kTZOPLrIDlMAdD7RSH_V-15" style="edgeStyle=orthogonalEdgeStyle;rounded=0;orthogonalLoop=1;jettySize=auto;html=1;exitX=1;exitY=0.5;exitDx=0;exitDy=0;entryX=0.5;entryY=0;entryDx=0;entryDy=0;strokeWidth=2;fontSize=17;" edge="1" parent="WIyWlLk6GJQsqaUBKTNV-1" source="kTZOPLrIDlMAdD7RSH_V-4" target="kTZOPLrIDlMAdD7RSH_V-6">
          <mxGeometry relative="1" as="geometry" />
        </mxCell>
        <mxCell id="kTZOPLrIDlMAdD7RSH_V-4" value="检索模块" style="ellipse;whiteSpace=wrap;html=1;strokeWidth=2;fontSize=17;" vertex="1" parent="WIyWlLk6GJQsqaUBKTNV-1">
          <mxGeometry x="468" y="180" width="120" height="80" as="geometry" />
        </mxCell>
        <mxCell id="kTZOPLrIDlMAdD7RSH_V-18" style="edgeStyle=orthogonalEdgeStyle;rounded=0;orthogonalLoop=1;jettySize=auto;html=1;exitX=0;exitY=0.5;exitDx=0;exitDy=0;entryX=1;entryY=0.5;entryDx=0;entryDy=0;strokeWidth=2;fontSize=17;" edge="1" parent="WIyWlLk6GJQsqaUBKTNV-1" source="kTZOPLrIDlMAdD7RSH_V-5" target="kTZOPLrIDlMAdD7RSH_V-2">
          <mxGeometry relative="1" as="geometry" />
        </mxCell>
        <mxCell id="kTZOPLrIDlMAdD7RSH_V-5" value="相似问句选择模块" style="ellipse;whiteSpace=wrap;html=1;strokeWidth=2;fontSize=17;" vertex="1" parent="WIyWlLk6GJQsqaUBKTNV-1">
          <mxGeometry x="468" y="380" width="120" height="80" as="geometry" />
        </mxCell>
        <mxCell id="kTZOPLrIDlMAdD7RSH_V-17" style="edgeStyle=orthogonalEdgeStyle;rounded=0;orthogonalLoop=1;jettySize=auto;html=1;exitX=0.5;exitY=1;exitDx=0;exitDy=0;entryX=1;entryY=0.5;entryDx=0;entryDy=0;strokeWidth=2;fontSize=17;" edge="1" parent="WIyWlLk6GJQsqaUBKTNV-1" source="kTZOPLrIDlMAdD7RSH_V-6" target="kTZOPLrIDlMAdD7RSH_V-5">
          <mxGeometry relative="1" as="geometry" />
        </mxCell>
        <mxCell id="kTZOPLrIDlMAdD7RSH_V-6" value="候选相似问句" style="rounded=1;whiteSpace=wrap;html=1;strokeWidth=2;fontSize=17;" vertex="1" parent="WIyWlLk6GJQsqaUBKTNV-1">
          <mxGeometry x="660" y="290" width="120" height="60" as="geometry" />
        </mxCell>
        <mxCell id="kTZOPLrIDlMAdD7RSH_V-14" style="edgeStyle=orthogonalEdgeStyle;rounded=0;orthogonalLoop=1;jettySize=auto;html=1;exitX=0.5;exitY=1;exitDx=0;exitDy=0;strokeWidth=2;fontSize=17;" edge="1" parent="WIyWlLk6GJQsqaUBKTNV-1" source="kTZOPLrIDlMAdD7RSH_V-7" target="kTZOPLrIDlMAdD7RSH_V-4">
          <mxGeometry relative="1" as="geometry" />
        </mxCell>
        <mxCell id="kTZOPLrIDlMAdD7RSH_V-7" value="知识模块" style="rounded=1;whiteSpace=wrap;html=1;strokeWidth=2;fontSize=17;" vertex="1" parent="WIyWlLk6GJQsqaUBKTNV-1">
          <mxGeometry x="468" y="33" width="120" height="60" as="geometry" />
        </mxCell>
      </root>
    </mxGraphModel>
  </diagram>
</mxfile>
